<?xml version="1.0" encoding="UTF-8" standalone="no"?>
<svg width="20px" height="9px" viewBox="0 0 20 9" version="1.1" xmlns="http://www.w3.org/2000/svg" xmlns:xlink="http://www.w3.org/1999/xlink" xmlns:sketch="http://www.bohemiancoding.com/sketch/ns">
    <!-- Generator: Sketch 3.2.2 (9983) - http://www.bohemiancoding.com/sketch -->
    <title>flickr</title>
    <desc>Created with Sketch.</desc>
    <defs></defs>
    <g id="Welcome" stroke="none" stroke-width="1" fill="none" fill-rule="evenodd" sketch:type="MSPage">
        <g id="Desktop-HD" sketch:type="MSArtboardGroup" transform="translate(-1495.000000, -18.000000)" fill="#FFFFFF">
            <g id="Social" sketch:type="MSLayerGroup" transform="translate(1274.000000, 10.000000)">
                <g id="flickr" transform="translate(221.000000, 8.000000)" sketch:type="MSShapeGroup">
                    <path d="M4.33957745,0 C1.94281287,0 -9.76996262e-15,2.01457963 -9.76996262e-15,4.49996282 C-9.76996262e-15,6.98538319 1.94281287,8.99996282 4.33957745,9 C6.73637788,9 8.67919075,6.98538319 8.67919075,4.49996282 C8.67919075,2.01457963 6.73641373,-3.71824003e-05 4.33957745,0 Z" id="Path"></path>
                    <path d="M10.6666667,4.49996282 C10.6666667,6.98538319 12.6094795,9 15.0062441,9 C17.4030804,9 19.3458574,6.98538319 19.3458574,4.49996282 C19.3458574,2.01461681 17.4030445,0 15.0062441,0 C12.6094437,0 10.6666667,2.01461681 10.6666667,4.49996282 Z M12.0009634,4.5 C12.0009634,2.7794205 13.3441091,1.38461538 15.0009634,1.38461538 C16.6578177,1.38461538 18.0009634,2.7794205 18.0009634,4.5 C18.0009634,6.2205795 16.6578177,7.61538462 15.0009634,7.61538462 C13.3441091,7.61538462 12.0009634,6.2205795 12.0009634,4.5 Z" id="Path"></path>
                </g>
            </g>
        </g>
    </g>
</svg>