<?xml version="1.0" encoding="UTF-8" standalone="no"?>
<svg width="20px" height="20px" viewBox="0 0 20 20" version="1.1" xmlns="http://www.w3.org/2000/svg" xmlns:xlink="http://www.w3.org/1999/xlink" xmlns:sketch="http://www.bohemiancoding.com/sketch/ns">
    <!-- Generator: Sketch 3.2.2 (9983) - http://www.bohemiancoding.com/sketch -->
    <title>googleplus</title>
    <desc>Created with Sketch.</desc>
    <defs></defs>
    <g id="Welcome" stroke="none" stroke-width="1" fill="none" fill-rule="evenodd" sketch:type="MSPage">
        <g id="Desktop-HD" sketch:type="MSArtboardGroup" transform="translate(-1439.000000, -12.000000)" fill="#FFFFFF">
            <g id="Social" sketch:type="MSLayerGroup" transform="translate(1274.000000, 10.000000)">
                <g id="googleplus" transform="translate(165.000000, 2.000000)" sketch:type="MSShapeGroup">
                    <path d="M19.7182166,5.03772 L16.9856608,5.03772 L16.9856608,8.1908112 L15.69765,8.1908112 L15.69765,5.03772 L12.6923077,5.03772 L12.6923077,3.725388 L15.69765,3.725388 L15.69765,0.6 L16.9856608,0.6 L16.9856608,3.725388 L19.2800656,3.725388 C19.4495267,4.15105588 19.5961139,4.58907219 19.7182166,5.03772 Z" id="Shape"></path>
                    <path d="M0.14135044,15.5660663 C0.464452466,15.0018051 0.965446768,14.4470494 1.70763962,13.991169 C3.38228209,12.9255841 5.63772543,12.7848465 6.85740724,12.704425 C6.47988668,12.2017906 6.04428603,11.6689981 6.04428603,10.7944143 C6.04428603,10.3219379 6.17980623,10.0404627 6.31532644,9.70872398 C6.01524599,9.73888205 5.72484556,9.76904011 5.45380516,9.76904011 C2.59820093,9.76904011 0.981638542,7.55744877 0.981638542,5.3760155 C0.981638542,4.08927145 1.55275939,2.65977923 2.70468109,1.62535765 C4.24380337,0.31147134 6.07332608,0.0872964 7.52532823,0.0872964 L13.0719764,0.0872964 L11.3489339,1.09357046 L9.68397142,1.09357046 C10.3034923,1.62535765 11.5909342,2.74422181 11.5909342,4.87338111 C11.5909342,6.94423481 10.4583726,7.91934554 9.3354909,8.84419282 C8.97733037,9.20608959 8.58044979,9.59814441 8.58044979,10.2113584 C8.58044979,10.8245723 8.97733037,11.1663637 9.27741082,11.4176809 L10.2454123,12.2017906 C11.436054,13.2271647 12.5105356,14.1821701 12.5105356,16.1122862 C12.5105356,17.3851262 11.9385604,18.6626619 10.8241093,19.6430823 C10.2244793,19.7446055 9.60934673,19.7982 8.98247675,19.7999554 C10.1141159,19.2844433 10.7003729,18.3412306 10.7003729,17.2080291 C10.7003729,15.7805475 9.81949162,15.0265959 7.76732858,13.50864 C7.55436827,13.4885346 7.41884807,13.4885346 7.14780767,13.4885346 C6.90580731,13.4885346 5.45380516,13.5387981 4.32124348,13.9308529 C3.73076261,14.152012 2.00772006,14.8255421 2.00772006,16.8159743 C2.00772006,17.0322856 2.02989379,17.2420005 2.07315642,17.4439794 C-0.765057095,15.2574912 0.464452487,15.5660668 0.14135044,15.5660663 Z M9.21933073,6.16012516 C9.21933073,4.13953489 8.06740903,1.01013315 5.83132572,1.01013315 C5.13436469,1.01013315 4.37932357,1.37404045 3.94372293,1.93397517 C3.48876225,2.52105214 3.35324205,3.27500373 3.35324205,3.99879726 C3.35324205,5.87864989 4.3986836,8.98493045 6.72188704,8.98493045 C7.38980803,8.98493045 8.1158091,8.64313906 8.55140974,8.2008208 C9.17093066,7.55744877 9.21933073,6.66275955 9.21933073,6.16012516 Z" id="Path"></path>
                </g>
            </g>
        </g>
    </g>
</svg>