<?xml version="1.0" encoding="UTF-8" standalone="no"?>
<svg width="20px" height="20px" viewBox="0 0 20 20" version="1.1" xmlns="http://www.w3.org/2000/svg" xmlns:xlink="http://www.w3.org/1999/xlink" xmlns:sketch="http://www.bohemiancoding.com/sketch/ns">
    <!-- Generator: Sketch 3.2.2 (9983) - http://www.bohemiancoding.com/sketch -->
    <title>instagram</title>
    <desc>Created with Sketch.</desc>
    <defs></defs>
    <g id="Welcome" stroke="none" stroke-width="1" fill="none" fill-rule="evenodd" sketch:type="MSPage">
        <g id="Desktop-HD" sketch:type="MSArtboardGroup" transform="translate(-1329.000000, -12.000000)" fill="#FFFFFF">
            <g id="Social" sketch:type="MSLayerGroup" transform="translate(1274.000000, 10.000000)">
                <g id="instagram" transform="translate(55.000000, 2.000000)" sketch:type="MSShapeGroup">
                    <path d="M18.0484123,19.9463219 C18.8533409,19.7757321 19.5110745,19.1051768 19.6684014,18.2966321 C19.6852881,18.2092295 19.6976716,18.1204217 19.7120252,18.032738 L19.7120252,2.28340027 C19.6982345,2.19712178 19.6864138,2.11056225 19.6695272,2.02456479 C19.4970023,1.14238829 18.768345,0.45778111 17.8736359,0.335529827 C17.8364853,0.33075219 17.8001791,0.322602105 17.7635915,0.316138244 L1.94843374,0.316138244 C1.85302437,0.333281527 1.75705212,0.346209249 1.66304997,0.367568094 C0.789730617,0.566261558 0.143536213,1.2685741 0.0191381618,2.15215579 C0.0140721778,2.18897169 0.00647320178,2.22550656 0,2.26232246 L0,18.0546589 C0.0180123876,18.1547082 0.0323660089,18.2556007 0.0548814934,18.3550879 C0.247951773,19.2077555 0.976890582,19.8687555 1.84401818,19.9800463 C1.88595327,19.985105 1.9281698,19.9932551 1.97010489,20 L17.7419203,20 C17.8443658,19.9825757 17.9470927,19.9682428 18.0484123,19.9463219 Z M2.13249782,8.35043636 C2.13249782,11.2633893 2.13221638,14.1763423 2.13277927,17.0892953 C2.13277927,17.5083221 2.4961229,17.8686121 2.91575524,17.8686121 C7.54156152,17.8688932 12.1670864,17.8688932 16.7928926,17.8686121 C17.2164652,17.8686121 17.5778387,17.5088842 17.5778387,17.086766 C17.5781202,14.1771854 17.5778387,11.2678859 17.5778387,8.35858644 L17.5778387,8.2981634 L15.6961071,8.2981634 C15.9617898,9.14605333 16.0434085,10.0085572 15.9392743,10.8876423 C15.8345773,11.7670084 15.5508822,12.5853894 15.0887519,13.3410991 C14.6263401,14.0976518 14.0268654,14.7243653 13.2928606,15.2232068 C11.3903021,16.5171031 8.8854545,16.6309233 6.86665987,15.4994666 C5.84614554,14.9281175 5.04487574,14.1313763 4.48621028,13.1047466 C3.65285591,11.5728116 3.51973311,9.96499641 4.00860056,8.29675821 C3.38435876,8.29732028 2.76264994,8.29732028 2.13249782,8.29732028 L2.13249782,8.35043636 Z M5.86190638,10.0976461 C5.8303847,12.3293643 7.61952138,14.098495 9.76440272,14.1445851 C11.9962501,14.1923615 13.8014291,12.4117083 13.8484302,10.2460338 C13.896557,8.01262936 12.0925038,6.16789966 9.85615332,6.16930485 C7.66989978,6.16789966 5.89258373,7.92438361 5.86190638,10.0976461 Z M16.8201927,5.36441364 C17.2375735,5.35401525 17.5775573,4.99681668 17.5775573,4.57947609 C17.5778387,3.95810233 17.5778387,3.33644753 17.5775573,2.71507377 C17.5775573,2.2693484 17.2243456,1.91467916 16.778539,1.91439812 C16.157956,1.91411708 15.5373729,1.91383605 14.9165085,1.91439812 C14.4718276,1.9149602 14.1174902,2.27047255 14.1172088,2.71619792 C14.1169273,3.33223197 14.1152387,3.94826602 14.1194603,4.56458111 C14.1200232,4.65648035 14.1374727,4.75203307 14.1667428,4.83915468 C14.2781945,5.16712536 14.5790576,5.36834816 14.9474672,5.37003439 C15.2469232,5.37059646 15.5463791,5.36975335 15.8461165,5.36975335 C16.1703395,5.36609986 16.4956882,5.37228269 16.8201927,5.36441364 Z" id="Path"></path>
                </g>
            </g>
        </g>
    </g>
</svg>