<svg xmlns="http://www.w3.org/2000/svg" viewBox="0 0 35 35"><style>.style0{fill:none;fill-rule:evenodd;}.style1{fill:#FFFFFF;}</style><g class="style0"><path d="M25 22 L23.4 22 L22.9 21.4 C24.8 19.2 26 16.2 26 13 C26 5.8 20.2 0 13 0 C5.8 0 0 5.8 0 13 C0 20.2 5.8 26 13 26 C16.2 26 19.2 24.8 21.4 22.9 L22 23.4 L22 25 L32 35 L35 32 L25 22 L25 22 ZM13 22 C8 22 4 18 4 13 C4 8 8 4 13 4 C18 4 22 8 22 13 C22 18 18 22 13 22 L13 22 Z" class="style1"/><path d="M-6 -6 L42 -6 L42 42 L-6 42 L-6 -6 Z"/></g></svg>