<?xml version="1.0" encoding="UTF-8" standalone="no"?>
<svg width="20px" height="16px" viewBox="0 0 20 16" version="1.1" xmlns="http://www.w3.org/2000/svg" xmlns:xlink="http://www.w3.org/1999/xlink" xmlns:sketch="http://www.bohemiancoding.com/sketch/ns">
    <!-- Generator: Sketch 3.2.2 (9983) - http://www.bohemiancoding.com/sketch -->
    <title>twitter</title>
    <desc>Created with Sketch.</desc>
    <defs></defs>
    <g id="Welcome" stroke="none" stroke-width="1" fill="none" fill-rule="evenodd" sketch:type="MSPage">
        <g id="Desktop-HD" sketch:type="MSArtboardGroup" transform="translate(-1274.000000, -14.000000)" fill="#FFFFFF">
            <g id="Social" sketch:type="MSLayerGroup" transform="translate(1274.000000, 10.000000)">
                <g id="twitter" transform="translate(0.000000, 4.000000)" sketch:type="MSShapeGroup">
                    <path d="M9.40100219,4.25625052 L9.44297095,4.94829564 L8.74349162,4.86355542 C6.19738686,4.53871792 3.97304259,3.43709507 2.0844484,1.58693363 L1.16113569,0.668914589 L0.923312715,1.34683634 C0.419687598,2.85803691 0.741448089,4.4539777 1.79066708,5.52735381 C2.35025055,6.12053534 2.22434427,6.20527556 1.25906279,5.85219131 C0.923312715,5.73920435 0.629531396,5.65446413 0.601552223,5.69683424 C0.503625117,5.79569783 0.839375195,7.08092448 1.10517734,7.5893658 C1.46890659,8.29553429 2.21035468,8.98757941 3.0217507,9.39715713 L3.70724045,9.72199464 L2.89584442,9.73611801 C2.11242757,9.73611801 2.0844484,9.75024138 2.16838592,10.0468321 C2.44817765,10.9648512 3.55335499,11.9393637 4.78443861,12.3630648 L5.65179298,12.6596556 L4.89635531,13.1116034 C3.77718838,13.7612784 2.46216724,14.128486 1.1471461,14.1567328 C0.517614704,14.1708561 1.95399252e-14,14.2273496 1.95399252e-14,14.2697197 C1.95399252e-14,14.4109534 1.70672956,15.2018621 2.69999021,15.5125763 C5.67977215,16.4305953 9.21913756,16.0351409 11.877159,14.4674469 C13.7657532,13.3517007 15.6543474,11.1343316 16.5356913,8.98757941 C17.0113373,7.84358645 17.4869832,5.75332772 17.4869832,4.75056847 C17.4869832,4.10089345 17.528952,4.01615324 18.3123688,3.2393679 C18.7740252,2.78742006 19.2077024,2.29310212 19.2916399,2.15186842 C19.4315358,1.88352439 19.4175462,1.88352439 18.7040773,2.12362168 C17.5149624,2.54732277 17.3470874,2.4908293 17.93465,1.85527765 C18.3683272,1.40332982 18.8859419,0.584174371 18.8859419,0.344077084 C18.8859419,0.301706974 18.6760981,0.372323823 18.4382751,0.499434152 C18.1864626,0.64066785 17.6268791,0.852518397 17.2071915,0.979628725 L16.4517538,1.21972601 L15.7662641,0.753654808 C15.3885452,0.499434152 14.856941,0.216966755 14.5771492,0.132226537 C13.8636803,-0.0655006408 12.7724926,-0.0372539012 12.1289716,0.188720016 C10.3802732,0.824271657 9.27509591,2.46258256 9.40100219,4.25625052 Z" id="Path"></path>
                </g>
            </g>
        </g>
    </g>
</svg>