<?xml version="1.0" encoding="utf-8"?>
<!-- Generator: Adobe Illustrator 18.1.1, SVG Export Plug-In . SVG Version: 6.00 Build 0)  -->
<!DOCTYPE svg PUBLIC "-//W3C//DTD SVG 1.1//EN" "http://www.w3.org/Graphics/SVG/1.1/DTD/svg11.dtd">
<svg id="twitter" xmlns="http://www.w3.org/2000/svg" viewBox="0 0 560 560">
<path fill-rule="evenodd" clip-rule="evenodd" fill="#FFFFFF" d="M497.2,144.7c-16,7.1-33.2,11.9-51.2,14.1
	c18.4-11.1,32.5-28.6,39.2-49.5C468,119.6,448.9,127,428.6,131c-16.3-17.4-39.4-28.3-65.1-28.3c-49.2,0-89.1,40.1-89.1,89.5
	c0,7,0.8,13.8,2.3,20.4C202.7,208.9,137,173.3,93,119.2c-7.7,13.2-12.1,28.6-12.1,45c0,31,15.7,58.4,39.7,74.5
	c-14.6-0.5-28.4-4.5-40.4-11.2c0,0.4,0,0.7,0,1.1c0,43.3,30.7,79.5,71.5,87.7c-7.5,2-15.3,3.1-23.5,3.1c-5.7,0-11.3-0.6-16.8-1.6
	c11.3,35.5,44.3,61.4,83.3,62.1c-30.5,24-68.9,38.3-110.7,38.3c-7.2,0-14.3-0.4-21.3-1.3c39.4,25.4,86.3,40.2,136.6,40.2
	c163.9,0,253.6-136.3,253.6-254.6c0-3.9-0.1-7.7-0.3-11.6C470.2,178.4,485.3,162.7,497.2,144.7z"/>
</svg>
