<?xml version="1.0" encoding="UTF-8" standalone="no"?>
<svg width="20px" height="25px" viewBox="0 0 20 25" version="1.1" xmlns="http://www.w3.org/2000/svg" xmlns:xlink="http://www.w3.org/1999/xlink" xmlns:sketch="http://www.bohemiancoding.com/sketch/ns">
    <!-- Generator: Sketch 3.2.2 (9983) - http://www.bohemiancoding.com/sketch -->
    <title>youtube</title>
    <desc>Created with Sketch.</desc>
    <defs></defs>
    <g id="Welcome" stroke="none" stroke-width="1" fill="none" fill-rule="evenodd" sketch:type="MSPage">
        <g id="Desktop-HD" sketch:type="MSArtboardGroup" transform="translate(-1384.000000, -10.000000)" fill="#FFFFFF">
            <g id="Social" sketch:type="MSLayerGroup" transform="translate(1274.000000, 10.000000)">
                <g id="youtube" transform="translate(110.000000, 0.000000)" sketch:type="MSShapeGroup">
                    <path d="M18.727316,12.1238898 C19.6571397,13.0673366 19.6671985,17.7249036 19.6671985,17.7518131 C19.6671985,17.7518131 19.6596659,22.4336272 18.727316,23.3803544 C17.8013506,24.3218043 9.9962796,24.3421053 9.9962796,24.3421053 C9.9962796,24.3421053 2.19231093,24.3218043 1.26391116,23.3804019 C0.335419537,22.4369076 0.332847411,17.7871376 0.332847411,17.7518131 C0.332847411,17.7249987 0.335373606,13.0673366 1.26391116,12.1238898 C2.19240279,11.1818693 9.9962796,11.1693179 9.9962796,11.1700311 C9.9962796,11.1693179 17.8013506,11.1818693 18.727316,12.1238898 Z M4.77674659,21.6341411 L3.50538135,21.6341411 L3.50538135,14.8677966 L2.19102486,14.8677966 L2.19102486,13.7181075 L6.09105714,13.7181075 L6.09110307,14.8677966 L4.77674659,14.8677966 L4.77674659,21.6341411 Z M8.68054519,20.9919279 C8.47059539,21.2302143 8.25550134,21.4102603 8.0291083,21.5333972 C7.80390947,21.6591488 7.58628922,21.719291 7.37376729,21.719291 C7.11186973,21.719291 6.91831723,21.6341887 6.78429108,21.4588019 C6.65398533,21.2838906 6.58692633,21.0253983 6.58692633,20.6763839 L6.58692633,15.7935097 L7.7141147,15.7935097 L7.7141147,20.2730751 C7.7141147,20.4118537 7.73813653,20.5113615 7.78374583,20.5728824 C7.83307554,20.6357345 7.91023933,20.6658769 8.01523719,20.6658769 C8.0974993,20.6658769 8.2037373,20.6246094 8.33023079,20.5427876 C8.45801034,20.4602526 8.57311299,20.3567987 8.68059112,20.2304765 L8.68059112,15.7936048 L9.80773357,15.7936048 L9.80768764,21.6341887 L8.68054519,21.6341887 L8.68054519,20.9919279 Z M12.8665887,21.7080708 C12.6452021,21.7080708 12.4490775,21.6669459 12.2770206,21.5817961 C12.1050556,21.4967414 11.9417716,21.3657599 11.7951144,21.1864271 L11.7951144,21.6341887 L10.6553869,21.6341887 L10.6553869,13.7181075 L11.7951144,13.7181075 L11.7951144,16.2668496 C11.9481559,16.0900365 12.108822,15.9532072 12.2783526,15.8616391 C12.4503176,15.7686922 12.6237524,15.722813 12.7981977,15.722813 C13.1562285,15.722813 13.4282308,15.8472335 13.6154449,16.0947433 C13.8051851,16.3441548 13.8988381,16.7088109 13.8988381,17.1867624 L13.8988381,20.4275429 C13.8987462,20.840598 13.8100997,21.1575208 13.6331283,21.3782162 C13.4573051,21.5994346 13.2005517,21.7080708 12.8665887,21.7080708 Z M15.6520177,19.9542031 C15.6520177,20.26195 15.6888083,20.4747057 15.7620679,20.5945145 C15.8379456,20.7129921 15.9644391,20.7713752 16.1441205,20.7713752 C16.3312427,20.7713752 16.4615944,20.7208843 16.536232,20.6200928 C16.6096294,20.5192537 16.6488084,20.2979878 16.6488084,19.9542031 L16.6488084,19.6877711 L17.8088373,19.6877711 L17.8088373,19.9876735 C17.8088373,20.586765 17.6683349,21.0378071 17.3837935,21.342226 C17.1030184,21.6434121 16.6804088,21.7932681 16.1188126,21.7932681 C15.6140329,21.7932681 15.215537,21.6341411 14.9258513,21.3120361 C14.6360737,20.9919755 14.4893248,20.5505847 14.4893248,19.9876259 L14.4893248,17.3648592 C14.4893248,16.8600933 14.6499908,16.4449938 14.9687966,16.1267874 C15.2875106,15.8079628 15.6973973,15.6488834 16.2034631,15.6488834 C16.7195419,15.6488834 17.1167976,15.7967902 17.3938064,16.0920808 C17.6708152,16.3866584 17.8087914,16.8109336 17.8087914,17.3648592 L17.8087914,18.8536261 L15.6520177,18.8536737 L15.6520177,19.9542031 Z M12.6186082,16.8017578 C12.6982063,16.903833 12.7374772,17.0537366 12.7374772,17.2508506 L12.7374772,20.2664666 C12.7374772,20.4543097 12.7033046,20.5865748 12.6389096,20.6684442 C12.5744227,20.7522628 12.4731453,20.7935303 12.3352609,20.7935303 C12.2391736,20.7935303 12.1493789,20.771185 12.0632586,20.7300126 C11.976036,20.6893632 11.8861493,20.6180009 11.7951144,20.5237703 L11.7951144,16.8849584 C11.8722323,16.8044202 11.9493961,16.7448486 12.0278,16.7068141 C12.1062958,16.6675434 12.1859398,16.6498574 12.2668699,16.6498574 C12.4186254,16.6498574 12.5363461,16.7009187 12.6186082,16.8017578 Z M15.7684523,16.8319002 C15.6900484,16.9339278 15.6521095,17.1107409 15.6521095,17.3550177 L15.6521095,17.9448859 L16.6489462,17.9448859 L16.6489462,17.3550177 C16.6489462,17.1107884 16.6084812,16.9340705 16.5299854,16.8319002 C16.4541077,16.7225033 16.326374,16.6708239 16.1555573,16.6708239 C15.9759678,16.6708239 15.8469481,16.7225033 15.7684523,16.8319002 Z" id="Path"></path>
                    <path d="M2.91471094,0 L4.61608056,5.26516884 L4.61608056,8.72008378 L6.04563156,8.72008378 L6.04563156,5.1021433 L7.70906231,0 L6.25553543,0 L5.37265311,3.48567537 L5.28281242,3.48567537 L4.35427486,0 L2.91471094,0 Z M9.7027357,2.12460938 C10.2276791,2.12460938 10.6591073,2.28036081 10.9955966,2.59205387 C11.3295137,2.90303377 11.4978042,3.3043457 11.4978042,3.79475355 L11.4978042,7.11802143 C11.4978042,7.66795333 11.3333718,8.09878958 11.0057473,8.4124319 C10.6742645,8.72536107 10.2226726,8.88253881 9.64458728,8.88253881 C9.09052374,8.88253881 8.64527032,8.72013132 8.31126136,8.3981214 C7.97982453,8.07463764 7.81162585,7.6392848 7.81162585,7.09263338 L7.81153398,3.75871582 C7.81153398,3.25917969 7.98230479,2.8624319 8.32513247,2.56780685 C8.66672001,2.27251619 9.1271306,2.12460938 9.7027357,2.12460938 Z M9.64196922,7.76807926 C9.81407202,7.76807926 9.94938423,7.71839664 10.0518559,7.6207905 C10.1531334,7.52123509 10.2037491,7.38578459 10.2037491,7.21420127 L10.2037491,3.70955618 C10.2037491,3.56887593 10.1518014,3.45558054 10.0480896,3.36848145 C9.94437777,3.2820955 9.80901963,3.23949681 9.64196922,3.23949681 C9.48640152,3.23949681 9.36119409,3.2820955 9.26377481,3.36848145 C9.16764159,3.45558054 9.11831188,3.56878084 9.11831188,3.70955618 L9.11831188,7.21424882 C9.11826595,7.39034874 9.16506946,7.52584678 9.25486423,7.62340538 C9.34470492,7.72029837 9.47377054,7.76807926 9.64196922,7.76807926 Z M14.8804257,8.72013132 L14.8804257,8.00978875 C14.6488884,8.27099095 14.404812,8.47205104 14.1504471,8.60816715 C13.8974602,8.7449964 13.6520058,8.81317331 13.4141301,8.81317331 C13.1181978,8.81317331 12.8992915,8.71689839 12.7501081,8.52572728 C12.6020731,8.33389057 12.5274355,8.04715769 12.5274355,7.66343673 L12.5274355,2.28692177 L13.7949426,2.28692177 L13.7949426,7.21881296 C13.7949426,7.37137901 13.8241086,7.48134637 13.8772047,7.5494282 C13.9290606,7.61760511 14.0163291,7.65221654 14.13529,7.65221654 C14.2276109,7.65221654 14.3465718,7.60643246 14.4894626,7.51671849 C14.6311132,7.42638646 14.762705,7.31104672 14.8803339,7.16970086 L14.8803339,2.28692177 L16.1505049,2.28692177 L16.1505049,8.72013132 L14.8804257,8.72013132 Z" id="Path"></path>
                </g>
            </g>
        </g>
    </g>
</svg>