<svg width="20" height="20" viewBox="0 0 20 20" xmlns="http://www.w3.org/2000/svg"><g fill="#FFF" fill-rule="evenodd"><path d="M19.718 5.038h-2.732V8.19h-1.288V5.038h-3.006V3.725h3.006V.6h1.288v3.125h2.294c.17.426.316.864.438 1.313z"/><path d="M.141 15.566c.323-.564.824-1.119 1.567-1.575 1.674-1.065 3.93-1.206 5.15-1.287-.378-.502-.814-1.035-.814-1.91 0-.472.136-.754.271-1.085-.3.03-.59.06-.861.06-2.856 0-4.472-2.212-4.472-4.393 0-1.287.57-2.716 1.723-3.75C4.244.31 6.073.086 7.525.086h5.547l-1.723 1.007H9.684c.62.531 1.907 1.65 1.907 3.78 0 2.07-1.133 3.045-2.256 3.97-.358.362-.755.754-.755 1.367 0 .614.397.955.697 1.207l.968.784c1.191 1.025 2.266 1.98 2.266 3.91 0 1.273-.572 2.55-1.687 3.531-.6.102-1.215.155-1.842.157 1.132-.516 1.718-1.459 1.718-2.592 0-1.427-.88-2.181-2.933-3.7-.213-.02-.348-.02-.62-.02-.241 0-1.693.05-2.826.443-.59.221-2.313.895-2.313 2.885 0 .216.022.426.065.628C-.765 15.257.464 15.566.141 15.566zM9.22 6.16c0-2.02-1.152-5.15-3.388-5.15-.697 0-1.452.364-1.887.924-.455.587-.59 1.341-.59 2.065 0 1.88 1.045 4.986 3.368 4.986.668 0 1.394-.342 1.83-.784.619-.644.667-1.538.667-2.04z"/></g></svg>