<svg width="20" height="20" viewBox="0 0 20 20" xmlns="http://www.w3.org/2000/svg"><g fill="#FFF" fill-rule="evenodd"><path d="M19.718 5.038h-2.732V8.19h-1.288V5.04h-3.006V3.725h3.006V.6h1.288v3.125h2.294c.17.426.316.864.438 1.313z"/><path d="M.14 15.566c.324-.564.825-1.12 1.568-1.575 1.674-1.064 3.93-1.205 5.15-1.286-.378-.502-.814-1.035-.814-1.91 0-.472.136-.754.27-1.085-.3.03-.59.06-.86.06C2.598 9.77.982 7.556.982 5.375c0-1.287.57-2.716 1.723-3.75C4.245.31 6.073.085 7.525.085h5.547L11.35 1.095H9.683c.62.53 1.907 1.65 1.907 3.78 0 2.07-1.132 3.045-2.255 3.97-.358.362-.755.754-.755 1.367 0 .615.397.956.697 1.208l.968.784c1.19 1.025 2.266 1.98 2.266 3.91 0 1.273-.57 2.55-1.686 3.53-.6.103-1.215.156-1.842.158 1.132-.516 1.718-1.46 1.718-2.592 0-1.427-.88-2.18-2.933-3.7-.213-.02-.348-.02-.62-.02-.24 0-1.693.05-2.826.443-.59.222-2.312.896-2.312 2.886 0 .216.022.426.065.628C-.765 15.257.463 15.566.14 15.566zM9.22 6.16c0-2.02-1.153-5.15-3.39-5.15-.696 0-1.45.364-1.886.924-.455.587-.59 1.34-.59 2.065 0 1.88 1.045 4.985 3.368 4.985.668 0 1.394-.342 1.83-.784.62-.643.667-1.537.667-2.04z"/></g></svg>