<svg width="20" height="20" viewBox="0 0 20 20" xmlns="http://www.w3.org/2000/svg"><path d="M18.048 19.946c.805-.17 1.463-.84 1.62-1.65.017-.087.03-.176.044-.263V2.283c-.014-.086-.026-.172-.042-.258-.173-.883-.902-1.567-1.796-1.69-.038-.004-.074-.012-.11-.02H1.948c-.095.018-.19.03-.285.053C.79.566.143 1.268.02 2.152l-.02.11v15.793c.018.1.032.2.055.3.193.853.922 1.514 1.79 1.625.04.005.083.013.125.02h15.772c.102-.017.205-.032.306-.054zM2.132 8.35v8.74c0 .418.364.78.784.78h13.877c.423 0 .785-.36.785-.783v-8.79h-1.882c.266.848.347 1.71.243 2.59-.105.88-.39 1.697-.85 2.453-.464.758-1.063 1.384-1.797 1.883-1.903 1.294-4.408 1.408-6.426.276-1.02-.572-1.822-1.37-2.38-2.395-.834-1.532-.967-3.14-.478-4.808H2.13v.053zm3.73 1.748c-.032 2.23 1.758 4 3.902 4.047 2.232.047 4.037-1.733 4.084-3.9.05-2.232-1.755-4.077-3.992-4.076-2.186-.002-3.963 1.754-3.994 3.928zM16.82 5.364c.418-.01.758-.367.758-.785V2.714c0-.446-.354-.8-.8-.8h-1.86c-.446 0-.8.355-.8.8 0 .617-.003 1.233 0 1.85.002.09.02.187.05.274.11.327.41.528.78.53h.898c.324-.004.65.002.974-.006z" fill="#FFF" fill-rule="evenodd"/></svg>