<svg width="20" height="20" viewBox="0 0 20 20" xmlns="http://www.w3.org/2000/svg"><path d="M18.048 19.946a2.13 2.13 0 0 0 1.62-1.65c.017-.087.03-.176.044-.263V2.283c-.014-.086-.026-.172-.042-.258a2.13 2.13 0 0 0-1.796-1.69c-.038-.004-.074-.012-.11-.019H1.948c-.095.017-.19.03-.285.052A2.124 2.124 0 0 0 .019 2.152c-.005.037-.013.074-.019.11v15.793c.018.1.032.2.055.3a2.131 2.131 0 0 0 1.789 1.625c.042.005.084.013.126.02h15.772c.102-.017.205-.032.306-.054zM2.132 8.35v8.74c0 .418.364.779.784.779h13.877c.423 0 .785-.36.785-.782V8.299h-1.882c.266.847.347 1.71.243 2.589a6.014 6.014 0 0 1-.85 2.453A6.135 6.135 0 0 1 6.867 15.5a5.982 5.982 0 0 1-2.38-2.394c-.834-1.532-.967-3.14-.478-4.808H2.132v.053zm3.73 1.748c-.032 2.231 1.758 4 3.902 4.047a4 4 0 0 0 4.084-3.899 3.995 3.995 0 1 0-7.986-.148zM16.82 5.364a.79.79 0 0 0 .758-.785V2.715c0-.446-.354-.8-.8-.8h-1.861a.797.797 0 0 0-.8.801c0 .616-.002 1.232.002 1.849.001.091.018.187.048.274.111.328.412.53.78.531h.9c.323-.004.649.002.973-.006z" fill="#FFF" fill-rule="evenodd"/></svg>