<svg width="20" height="16" viewBox="0 0 20 16" xmlns="http://www.w3.org/2000/svg"><path d="M9.4 4.256l.043.692-.7-.084c-2.546-.325-4.77-1.427-6.66-3.277L1.162.67l-.237.677C.42 2.857.74 4.454 1.79 5.527c.56.594.434.678-.53.325C.922 5.74.63 5.654.6 5.697c-.098.1.237 1.384.503 1.892.364.706 1.105 1.398 1.917 1.807l.685.325-.81.014c-.785 0-.813.014-.73.31.28.92 1.386 1.893 2.617 2.317l.868.297-.756.452c-1.12.65-2.434 1.016-3.75 1.045C.52 14.17 0 14.227 0 14.27c0 .14 1.707.932 2.7 1.243 2.98.918 6.52.522 9.177-1.046 1.89-1.115 3.777-3.333 4.66-5.48.474-1.143.95-3.234.95-4.236 0-.65.042-.734.825-1.51.462-.453.896-.947.98-1.088.14-.268.126-.268-.588-.028-1.19.423-1.357.367-.77-.27.434-.45.952-1.27.952-1.51 0-.042-.21.028-.448.155-.252.14-.81.353-1.23.48l-.756.24-.686-.466c-.377-.255-.91-.537-1.19-.622-.712-.198-1.804-.17-2.447.057-1.75.634-2.855 2.273-2.73 4.066z" fill="#FFF" fill-rule="evenodd"/></svg>