<svg xmlns="http://www.w3.org/2000/svg" viewBox="0 0 560 560"><path fill-rule="evenodd" clip-rule="evenodd" fill="#fff" d="M497.2 144.7c-16 7.1-33.2 11.9-51.2 14.1 18.4-11.1 32.5-28.6 39.2-49.5-17.2 10.3-36.3 17.7-56.6 21.7-16.3-17.4-39.4-28.3-65.1-28.3-49.2 0-89.1 40.1-89.1 89.5 0 7 .8 13.8 2.3 20.4-74-3.7-139.7-39.3-183.7-93.4-7.7 13.2-12.1 28.6-12.1 45 0 31 15.7 58.4 39.7 74.5-14.6-.5-28.4-4.5-40.4-11.2v1.1c0 43.3 30.7 79.5 71.5 87.7-7.5 2-15.3 3.1-23.5 3.1-5.7 0-11.3-.6-16.8-1.6 11.3 35.5 44.3 61.4 83.3 62.1-30.5 24-68.9 38.3-110.7 38.3-7.2 0-14.3-.4-21.3-1.3 39.4 25.4 86.3 40.2 136.6 40.2 163.9 0 253.6-136.3 253.6-254.6 0-3.9-.1-7.7-.3-11.6 17.6-12.5 32.7-28.2 44.6-46.2z"/></svg>