<svg width="20" height="25" viewBox="0 0 20 25" xmlns="http://www.w3.org/2000/svg"><g fill="#FFF" fill-rule="evenodd"><path d="M18.727 12.124c.93.943.94 5.6.94 5.628 0 0-.007 4.682-.94 5.628-.926.942-8.73.962-8.73.962s-7.805-.02-8.733-.962c-.929-.943-.931-5.593-.931-5.628 0-.027.002-4.685.93-5.628.93-.942 8.733-.955 8.733-.954 0 0 7.805.012 8.731.954zm-13.95 9.51H3.505v-6.766H2.191v-1.15h3.9v1.15H4.777v6.766zm3.904-.642c-.21.238-.425.418-.652.541a1.335 1.335 0 0 1-.655.186c-.262 0-.456-.085-.59-.26-.13-.175-.197-.434-.197-.783v-4.882h1.127v4.48c0 .138.024.237.07.299.05.063.126.093.231.093.082 0 .189-.041.315-.123.128-.083.243-.186.35-.313v-4.436h1.128v5.84H8.68v-.642zm4.186.716a1.31 1.31 0 0 1-.59-.126 1.47 1.47 0 0 1-.482-.396v.448h-1.14v-7.916h1.14v2.549c.153-.177.314-.314.483-.405.172-.093.346-.14.52-.14.358 0 .63.125.817.373.19.25.284.614.284 1.092v3.24c0 .414-.089.73-.266.951-.176.221-.432.33-.766.33zm2.785-1.754c0 .308.037.52.11.64.076.119.202.177.382.177.187 0 .318-.05.392-.15.074-.102.113-.323.113-.667v-.266h1.16v.3c0 .599-.14 1.05-.425 1.354-.281.301-.704.451-1.265.451-.505 0-.903-.159-1.193-.481-.29-.32-.437-.761-.437-1.324v-2.623c0-.505.161-.92.48-1.238.319-.319.728-.478 1.234-.478.517 0 .914.148 1.19.443.278.295.416.719.416 1.273v1.489h-2.157v1.1zm-3.033-3.152c.08.102.118.252.118.449v3.015c0 .188-.034.32-.098.402-.065.084-.166.126-.304.126a.622.622 0 0 1-.272-.064.952.952 0 0 1-.268-.206v-3.639a.832.832 0 0 1 .233-.178.526.526 0 0 1 .239-.057.43.43 0 0 1 .352.152zm3.15.03c-.079.102-.117.279-.117.523v.59h.997v-.59c0-.244-.04-.42-.119-.523-.076-.11-.204-.161-.374-.161-.18 0-.31.052-.388.16zM2.915 0l1.701 5.265V8.72h1.43V5.102L7.709 0H6.256l-.883 3.486h-.09L4.354 0h-1.44zm6.788 2.125c.525 0 .956.155 1.293.467.334.311.502.712.502 1.203v3.323c0 .55-.165.98-.492 1.294-.332.313-.783.47-1.361.47-.554 0-1-.162-1.334-.484-.331-.323-.5-.759-.5-1.305V3.759c0-.5.171-.897.514-1.191.342-.295.802-.443 1.378-.443zm-.061 5.643c.172 0 .307-.05.41-.147a.544.544 0 0 0 .152-.407V3.71a.424.424 0 0 0-.156-.342.613.613 0 0 0-.406-.129.547.547 0 0 0-.378.13.439.439 0 0 0-.146.34v3.505c0 .176.047.312.137.41.09.096.219.144.387.144zm5.238.952v-.71a2.685 2.685 0 0 1-.73.598 1.544 1.544 0 0 1-.736.205c-.296 0-.515-.096-.664-.287-.148-.192-.223-.479-.223-.863V2.287h1.268v4.932c0 .152.03.262.082.33.052.069.14.103.258.103.093 0 .212-.046.354-.135.142-.09.274-.206.391-.347V2.287h1.27V8.72h-1.27z"/></g></svg>