<svg width="20" height="25" viewBox="0 0 20 25" xmlns="http://www.w3.org/2000/svg"><g fill="#FFF" fill-rule="evenodd"><path d="M18.727 12.124c.93.943.94 5.6.94 5.628 0 0-.007 4.682-.94 5.628-.926.942-8.73.962-8.73.962s-7.805-.02-8.733-.962c-.93-.943-.93-5.593-.93-5.628 0-.027 0-4.685.93-5.628.928-.942 8.732-.955 8.732-.954 0 0 7.805.012 8.73.954zm-13.95 9.51H3.505v-6.766H2.19v-1.15h3.9v1.15H4.778v6.766zm3.904-.642c-.21.238-.424.418-.65.54-.226.127-.444.187-.656.187-.262 0-.456-.086-.59-.26-.13-.176-.197-.435-.197-.784v-4.882h1.127v4.48c0 .138.024.237.07.3.05.062.126.092.23.092.083 0 .19-.04.316-.123.128-.083.243-.186.35-.313v-4.436H9.81v5.84H8.68v-.642zm4.187.716c-.222 0-.418-.04-.59-.126-.172-.085-.335-.216-.482-.396v.448h-1.14v-7.916h1.14v2.55c.153-.178.314-.315.483-.406.172-.093.346-.14.52-.14.358 0 .63.125.817.373.19.25.284.614.284 1.092v3.24c0 .414-.09.73-.267.95-.176.222-.432.33-.766.33zm2.785-1.754c0 .308.037.52.11.64.076.12.202.177.382.177.187 0 .318-.05.392-.15.074-.1.113-.322.113-.666v-.266h1.16v.3c0 .6-.142 1.05-.426 1.354-.28.3-.704.45-1.265.45-.506 0-.904-.158-1.194-.48-.29-.32-.437-.76-.437-1.324v-2.623c0-.505.16-.92.48-1.238.318-.32.727-.478 1.233-.478.517 0 .914.147 1.19.442.278.295.416.72.416 1.273v1.49H15.65v1.1zm-3.033-3.152c.078.102.117.252.117.45v3.014c0 .188-.034.32-.098.402-.066.084-.167.126-.305.126-.096 0-.186-.023-.272-.064-.087-.04-.177-.112-.268-.206v-3.64c.077-.08.154-.14.233-.177.078-.04.158-.057.24-.057.15 0 .268.05.35.152zm3.148.03c-.078.102-.116.28-.116.523v.59h.997v-.59c0-.244-.042-.42-.12-.523-.076-.11-.204-.16-.374-.16-.18 0-.31.05-.388.16z" id="Path"/><path d="M2.915 0l1.7 5.265V8.72h1.43V5.102L7.71 0H6.255l-.883 3.486h-.09L4.353 0H2.916zm6.788 2.125c.525 0 .956.155 1.293.467.334.31.502.712.502 1.203v3.323c0 .55-.165.98-.492 1.294-.332.313-.783.47-1.36.47-.555 0-1-.162-1.335-.484-.33-.323-.498-.76-.498-1.305V3.76c0-.5.17-.898.513-1.192.342-.295.802-.443 1.378-.443zm-.06 5.643c.17 0 .306-.05.41-.147.1-.1.15-.234.15-.406V3.71c0-.14-.05-.254-.155-.342-.104-.086-.24-.13-.406-.13-.156 0-.28.044-.378.13-.096.088-.146.2-.146.342v3.504c0 .176.047.312.137.41.09.096.22.144.387.144zm5.237.952v-.71c-.23.26-.475.462-.73.598-.253.137-.498.205-.736.205-.296 0-.515-.096-.664-.287-.148-.192-.223-.48-.223-.863V2.287h1.268V7.22c0 .15.03.26.082.33.052.068.14.102.258.102.093 0 .212-.046.354-.135.14-.09.273-.206.39-.347V2.287h1.27V8.72h-1.27z"/></g></svg>